<?xml version="1.0" encoding="UTF-8"?>
<svg id="Capa_1" data-name="Capa 1" xmlns="http://www.w3.org/2000/svg" version="1.1" viewBox="0 0 376.93 280.55">
  <defs>
    <style>
      .cls-1 {
        fill: #000;
        stroke-width: 0px;
      }

      .cls-2 {
        opacity: .99;
      }
    </style>
  </defs>
  <g id="GveGeS" class="cls-2">
    <g>
      <path class="cls-1" d="M55.58,137.65c0-32.67.02-65.35-.01-98.02,0-9.37,3.32-17.15,10.66-23.08,5.46-4.41,11.76-6.99,18.62-8.27,2.51-.47,5.03-.77,7.59-.77,46.98,0,93.95-.01,140.93.02,7.75,0,14.85,2.2,20.91,7.18,5.76,4.74,8.88,10.97,10,18.27.39,2.56.46,5.15.46,7.74-.01,13.28-.01,26.55,0,39.83,0,.54-.31,1.34.23,1.58.48.22,1.01-.43,1.43-.79,4.76-3.98,9.95-7.38,14.91-11.08,5.64-4.21,11.54-4.26,17.66-1.43,4.7,2.17,8.31,5.7,11.48,9.7,4.66,5.89,8.5,12.22,10.15,19.65,1.19,5.37,1.15,10.68-1.24,15.79-.66,1.41-1.6,2.55-2.89,3.45-2.96,2.07-5.89,4.19-8.85,6.27-.55.39-.99.82-1.3,1.44-.59,1.22-1.58,2.08-2.67,2.84-12.52,8.7-25.03,17.42-37.57,26.08-.99.69-1.39,1.39-1.39,2.61.03,26.63.05,53.27.01,79.9-.01,8.38-2.04,16.22-7.06,23.06-6.29,8.58-14.67,13.39-25.47,13.39-46.16.02-92.31.01-138.47,0-9.76,0-18.09-3.71-25.31-10.04-6.26-5.48-10.56-12.21-12.24-20.47-.47-2.3-.57-4.65-.57-6.99-.02-32.63-.01-65.27-.01-97.9ZM164.86,181.05h-1.68c-17.88,0-35.76,0-53.64,0-.78,0-1.56.04-2.33-.15-3.53-.87-5.94-4.2-5.56-7.7.4-3.77,3.46-6.57,7.39-6.57,19.93-.03,39.87-.02,59.8,0,1.12,0,2.23.19,3.2.76.84.5,1.28.3,1.76-.5,1.67-2.78,3.42-5.52,5.13-8.28,2.45-3.95,4.89-7.89,7.33-11.84.16-.26.54-.53.32-.86-.19-.29-.61-.12-.93-.14-.25-.02-.49,0-.74,0-24.99,0-49.98,0-74.97,0-.45,0-.91.01-1.36-.01-4.1-.23-7.24-3.73-6.97-7.74.26-3.88,3.38-6.69,7.48-6.69,28.4,0,56.8,0,85.2.01.98,0,1.73-.14,2.29-1.04.43-.69,1.12-1.19,1.8-1.67,14.48-10.06,28.94-20.13,43.44-30.17.95-.66,1.34-1.33,1.34-2.5-.04-16.93-.03-33.87-.03-50.8,0-2.59.03-5.18-.01-7.77-.08-4.43-2.38-7.12-6.71-8.01-1.63-.33-3.27-.33-4.91-.33-45.7,0-91.41,0-137.11,0-1.03,0-2.06,0-3.08.08-3.48.29-6.81,1.17-9.83,2.96-2.61,1.55-4.4,3.63-4.4,6.91.01,65.8,0,131.6,0,197.41,0,1.76.3,3.47,1.19,4.98,3.63,6.17,8.73,10.11,16.19,10.11,45.58.02,91.16,0,136.74,0,.49,0,.99-.02,1.48-.02,1.98-.01,3.7-.72,5.19-1.97,3.68-3.08,5.18-7.25,5.2-11.81.1-22.11.05-44.22.05-66.34,0-.32.14-.74-.16-.92-.39-.24-.67.18-.95.38-3.01,2.08-6.02,4.15-9.01,6.27-1.29.92-2.68,1.57-4.22,1.94-8.7,2.11-17.4,4.22-26.1,6.34-10.1,2.46-20.19,4.93-30.29,7.35-2.97.71-5.59-.05-7.5-2.5-1.92-2.46-2.11-5.18-.66-7.98.17-.32.33-.65.6-1.19ZM272.2,94.96c-.31.21-.66.42-1,.66-10.63,7.39-21.25,14.77-31.88,22.16-8.64,6-17.26,12.02-25.92,17.99-.91.63-.98,1.1-.33,1.95,1.16,1.54,2.23,3.16,3.33,4.74,4.15,5.97,8.3,11.94,12.45,17.91.93,1.34.95,1.34,2.34.38,1.69-1.17,3.37-2.35,5.06-3.52,17.54-12.19,35.08-24.39,52.64-36.56.77-.53.93-.94.35-1.76-2.01-2.8-3.95-5.66-5.92-8.49-3.42-4.92-6.85-9.85-10.28-14.77-.2-.28-.31-.7-.83-.69ZM186.05,174.55c9.98-2.42,19.54-4.75,29.11-7.07.87-.21.64-.57.27-1.1-4.02-5.76-8.03-11.53-12.04-17.29-.81-1.17-.83-1.16-1.58.05-4.05,6.52-8.11,13.05-12.16,19.58-1.14,1.84-2.27,3.68-3.6,5.83ZM306.83,104.69c.07-2-.32-3.72-.9-5.39-1.65-4.81-4.4-8.99-7.68-12.81-1.53-1.78-3.21-3.41-5.32-4.53-1.18-.63-2.27-.74-3.41.21-1.13.94-2.35,1.81-3.62,2.56-1.09.64-1,1.17-.33,2.1,4.79,6.68,9.52,13.39,14.29,20.08.68.96,1.13,2.49,2.19,2.68,1.14.21,2.01-1.22,3.08-1.81,1.33-.72,2.07-1.71,1.71-3.09Z"/>
      <path class="cls-1" d="M160,78.47c-17.05,0-34.1,0-51.15,0-4.16,0-7.37-3.33-7.23-7.42.13-3.74,3.15-6.77,6.97-7,.37-.02.74-.01,1.11-.01,33.6,0,67.21,0,100.81,0,1.81,0,3.51.27,5.03,1.34,2.57,1.81,3.73,5.02,2.84,7.93-.96,3.15-3.61,5.17-6.87,5.17-17.17.01-34.34,0-51.52,0Z"/>
      <path class="cls-1" d="M160.17,110.29c-17.1,0-34.2,0-51.29,0-3.44,0-6.16-2.11-7-5.32-1.19-4.56,2.09-8.86,6.97-9.1.33-.02.66,0,.99,0,33.58,0,67.16,0,100.74,0,3.95,0,6.7,1.81,7.75,5.07,1.48,4.63-1.86,9.34-6.73,9.35-17.14.03-34.28,0-51.42.01Z"/>
    </g>
  </g>
</svg>