<?xml version="1.0" encoding="UTF-8"?>
<svg id="Capa_1" data-name="Capa 1" xmlns="http://www.w3.org/2000/svg" version="1.1" viewBox="0 0 376.93 280.55">
  <defs>
    <style>
      .cls-1 {
        fill: #000;
        stroke-width: 0px;
      }
    </style>
  </defs>
  <g id="wY6epX">
    <path class="cls-1" d="M189.44,212.63c-15.55.1-30.47-2.97-44.69-9.17-3.47-1.51-5.53-1-8.18,1.71-11.87,12.14-24,24.04-36.09,35.97-4.32,4.26-9.18,4.61-12.79,1.14-3.75-3.61-3.46-8.66.97-13.15,10.88-11.02,21.74-22.06,32.8-32.9,2.6-2.55,3.27-3.73-.24-6.18-14.59-10.17-25.89-23.93-38.59-36.17-3.72-3.58-7.41-7.2-10.88-11.02-3.71-4.09-3.86-8.64.03-12.52,14.75-14.69,28.64-30.3,44.57-43.73,18.92-15.95,41.03-24.26,65.79-25.81,19.56-1.22,38.14,2.37,55.71,10.79,4.27,2.05,6.84,1.42,9.94-1.74,9.91-10.11,20.04-20,30.09-29.97,1.78-1.77,3.55-3.56,6.23-3.88,3.88-.46,6.97.9,8.75,4.4,1.87,3.68,1.15,7.16-1.73,10.08-7.61,7.7-15.29,15.34-22.94,23-2.35,2.36-4.61,4.82-7.1,7.03-2.47,2.19-1.85,3.52.49,5.44,16.4,13.45,30.37,29.42,45.44,44.24,3.75,3.69,4.24,8.22.79,11.65-18.62,18.51-35.2,39.32-57.68,53.6-18.44,11.71-38.85,17.14-60.69,17.19ZM221.04,120.27c-21.49,21.53-43.04,43-64.6,64.46-2.76,2.75-2.05,3.92,1.25,4.98,10.37,3.32,20.92,5.4,31.88,5.33,27.54-.47,51.29-10.07,70.87-29.59,7.19-7.17,14.12-14.6,21.21-21.86,7.56-7.74,7.68-7.81-.24-15.53-10.25-9.99-19.63-20.86-30.88-29.82-2.34-1.87-4.27-3.29-7.19-.36-7.43,7.47-14.87,14.93-22.32,22.39M188.29,77.5c-18.6.52-36.52,5.33-52.66,16.06-16.97,11.29-29.35,27.48-44.05,41.2-2.04,1.9-.6,3.18.74,4.53,5.52,5.55,11,11.13,16.52,16.68,7.51,7.55,14.79,15.32,23.51,21.6,3.26,2.35,5.34,2.19,8-.72,4.04-4.42,8.29-8.67,12.72-12.7,2.75-2.5,2.79-4.5.94-7.66-5.35-9.16-6.69-19.11-4.07-29.38,6.7-26.25,35.02-38.73,58.82-25.79,3.67,2,5.78,1.8,8.42-1.26,3.03-3.52,6.39-6.81,9.85-9.91,3.02-2.7,2.4-3.99-1.1-5.34-11.93-4.61-24.25-7.03-37.64-7.29ZM166.02,136.81c.31,1.75.56,4.25,1.21,6.64,1.24,4.61,2.22,4.81,5.69,1.35,8.22-8.23,16.41-16.5,24.62-24.73,3.38-3.39,3.14-4.42-1.46-5.88-14.34-4.56-29.73,6.66-30.05,22.63Z"/>
  </g>
</svg>